HIERARCHY
ROOT hip
{
  OFFSET 5.51535 103.731 -2.80141
  CHANNELS 6 Xposition Yposition Zposition Zrotation Xrotation Yrotation
  JOINT abdomen
  {
    OFFSET 0 -1.186 -1.5018
    CHANNELS 6 Xposition Yposition Zposition Zrotation Xrotation Yrotation
    JOINT abdomen2
    {
      OFFSET 0 9.964 0.2134
      CHANNELS 6 Xposition Yposition Zposition Zrotation Xrotation Yrotation
      JOINT chest
      {
        OFFSET 0 13.134 -3.2573
        CHANNELS 6 Xposition Yposition Zposition Zrotation Xrotation Yrotation
        JOINT neck
        {
          OFFSET 0 20.686 -1.6905
          CHANNELS 6 Xposition Yposition Zposition Zrotation Xrotation Yrotation
          JOINT head
          {
            OFFSET 0 7.23801 -0.1237
            CHANNELS 6 Xposition Yposition Zposition Zrotation Xrotation Yrotation
            End Site
            {
              OFFSET 0 0 0
            }
          }
        }
        JOINT lCollar
        {
          OFFSET 1.7069 20.075 5.0056
          CHANNELS 6 Xposition Yposition Zposition Zrotation Xrotation Yrotation
          JOINT lShldr
          {
            OFFSET 13.6458 -0.0470195 -4.849
            CHANNELS 6 Xposition Yposition Zposition Zrotation Xrotation Yrotation
            JOINT lForeArm
            {
              OFFSET 28.3255 -0.97589 2.2888
              CHANNELS 6 Xposition Yposition Zposition Zrotation Xrotation Yrotation
              JOINT lHand
              {
                OFFSET 22.1583 -0.529998 10.8316
                CHANNELS 6 Xposition Yposition Zposition Zrotation Xrotation Yrotation
                JOINT lThumb1
                {
                  OFFSET 0.786 0.111997 2.5817
                  CHANNELS 6 Xposition Yposition Zposition Zrotation Xrotation Yrotation
                  JOINT lThumb2
                  {
                    OFFSET 0.360097 -0.877999 4.2331
                    CHANNELS 6 Xposition Yposition Zposition Zrotation Xrotation Yrotation
                    JOINT lThumb2_End
                    {
                      OFFSET 1.8127 -1.21601 2.2227
                      CHANNELS 6 Xposition Yposition Zposition Zrotation Xrotation Yrotation
                      End Site
                      {
                        OFFSET 0.0180981 -0.012195 0.0222007
                      }
                    }
                  }
                }
                JOINT lCarpal1
                {
                  OFFSET 0.9571 1.114 1.7695
                  CHANNELS 6 Xposition Yposition Zposition Zrotation Xrotation Yrotation
                  JOINT lIndex1
                  {
                    OFFSET 4.12461 0.486992 4.1451
                    CHANNELS 6 Xposition Yposition Zposition Zrotation Xrotation Yrotation
                    JOINT lIndex2
                    {
                      OFFSET 3.4052 -1.45401 2.7682
                      CHANNELS 6 Xposition Yposition Zposition Zrotation Xrotation Yrotation
                      JOINT lIndex2_End
                      {
                        OFFSET 1.45309 -1.79499 1.2713
                        CHANNELS 6 Xposition Yposition Zposition Zrotation Xrotation Yrotation
                        End Site
                        {
                          OFFSET 0.0144979 -0.0179083 0.0126995
                        }
                      }
                    }
                  }
                  JOINT lMid1
                  {
                    OFFSET 5.6954 0.209987 2.1184
                    CHANNELS 6 Xposition Yposition Zposition Zrotation Xrotation Yrotation
                    JOINT lMid2
                    {
                      OFFSET 3.9766 -1.53999 2.3863
                      CHANNELS 6 Xposition Yposition Zposition Zrotation Xrotation Yrotation
                      JOINT lMid2_End
                      {
                        OFFSET 1.4042 -1.926 1.125
                        CHANNELS 6 Xposition Yposition Zposition Zrotation Xrotation Yrotation
                        End Site
                        {
                          OFFSET 0.013999 -0.0193044 0.011301
                        }
                      }
                    }
                  }
                }
                JOINT lCarpal2
                {
                  OFFSET 2.0956 0.66 -0.3894
                  CHANNELS 6 Xposition Yposition Zposition Zrotation Xrotation Yrotation
                  JOINT lRing1
                  {
                    OFFSET 5.0395 -0.090013 2.4971
                    CHANNELS 6 Xposition Yposition Zposition Zrotation Xrotation Yrotation
                    JOINT lRing2
                    {
                      OFFSET 3.7921 -1.55199 1.4806
                      CHANNELS 6 Xposition Yposition Zposition Zrotation Xrotation Yrotation
                      JOINT lRing2_End
                      {
                        OFFSET 1.4655 -1.808 0.9609
                        CHANNELS 6 Xposition Yposition Zposition Zrotation Xrotation Yrotation
                        End Site
                        {
                          OFFSET 0.0147015 -0.0181014 0.00959957
                        }
                      }
                    }
                  }
                  JOINT lPinky1
                  {
                    OFFSET 4.9141 -1.269 0.3591
                    CHANNELS 6 Xposition Yposition Zposition Zrotation Xrotation Yrotation
                    JOINT lPinky2
                    {
                      OFFSET 3.1477 -1.685 0.8462
                      CHANNELS 6 Xposition Yposition Zposition Zrotation Xrotation Yrotation
                      JOINT lPinky2_End
                      {
                        OFFSET 0.805498 -1.58501 0.795499
                        CHANNELS 6 Xposition Yposition Zposition Zrotation Xrotation Yrotation
                        End Site
                        {
                          OFFSET 0.00809703 -0.0157944 0.00799848
                        }
                      }
                    }
                  }
                }
              }
            }
          }
        }
        JOINT rCollar
        {
          OFFSET -1.7069 20.075 5.0056
          CHANNELS 6 Xposition Yposition Zposition Zrotation Xrotation Yrotation
          JOINT rShldr
          {
            OFFSET -13.6458 -0.0470107 -4.849
            CHANNELS 6 Xposition Yposition Zposition Zrotation Xrotation Yrotation
            JOINT rForeArm
            {
              OFFSET -28.3255 -0.975895 2.2888
              CHANNELS 6 Xposition Yposition Zposition Zrotation Xrotation Yrotation
              JOINT rHand
              {
                OFFSET -22.1583 -0.530007 10.8316
                CHANNELS 6 Xposition Yposition Zposition Zrotation Xrotation Yrotation
                JOINT rThumb1
                {
                  OFFSET -0.785997 0.112005 2.5817
                  CHANNELS 6 Xposition Yposition Zposition Zrotation Xrotation Yrotation
                  JOINT rThumb2
                  {
                    OFFSET -0.360106 -0.877994 4.2331
                    CHANNELS 6 Xposition Yposition Zposition Zrotation Xrotation Yrotation
                    JOINT rThumb2_End
                    {
                      OFFSET -1.8127 -1.216 2.2227
                      CHANNELS 6 Xposition Yposition Zposition Zrotation Xrotation Yrotation
                      End Site
                      {
                        OFFSET -0.0180972 -0.0121973 0.0222005
                      }
                    }
                  }
                }
                JOINT rCarpal1
                {
                  OFFSET -0.9571 1.114 1.7695
                  CHANNELS 6 Xposition Yposition Zposition Zrotation Xrotation Yrotation
                  JOINT rIndex1
                  {
                    OFFSET -4.1246 0.487011 4.1451
                    CHANNELS 6 Xposition Yposition Zposition Zrotation Xrotation Yrotation
                    JOINT rIndex2
                    {
                      OFFSET -3.4052 -1.45401 2.7682
                      CHANNELS 6 Xposition Yposition Zposition Zrotation Xrotation Yrotation
                      JOINT rIndex2_End
                      {
                        OFFSET -1.4531 -1.795 1.2713
                        CHANNELS 6 Xposition Yposition Zposition Zrotation Xrotation Yrotation
                        End Site
                        {
                          OFFSET -0.0145077 -0.0180048 0.0127017
                        }
                      }
                    }
                  }
                  JOINT rMid1
                  {
                    OFFSET -5.6954 0.210002 2.1184
                    CHANNELS 6 Xposition Yposition Zposition Zrotation Xrotation Yrotation
                    JOINT rMid2
                    {
                      OFFSET -3.9766 -1.54 2.3863
                      CHANNELS 6 Xposition Yposition Zposition Zrotation Xrotation Yrotation
                      JOINT rMid2_End
                      {
                        OFFSET -1.4042 -1.926 1.125
                        CHANNELS 6 Xposition Yposition Zposition Zrotation Xrotation Yrotation
                        End Site
                        {
                          OFFSET -0.0139948 -0.0192916 0.0112994
                        }
                      }
                    }
                  }
                }
                JOINT rCarpal2
                {
                  OFFSET -2.0956 0.66 -0.3894
                  CHANNELS 6 Xposition Yposition Zposition Zrotation Xrotation Yrotation
                  JOINT rRing1
                  {
                    OFFSET -5.03951 -0.0899879 2.4971
                    CHANNELS 6 Xposition Yposition Zposition Zrotation Xrotation Yrotation
                    JOINT rRing2
                    {
                      OFFSET -3.7921 -1.55201 1.4806
                      CHANNELS 6 Xposition Yposition Zposition Zrotation Xrotation Yrotation
                      JOINT rRing2_End
                      {
                        OFFSET -1.4655 -1.808 0.960901
                        CHANNELS 6 Xposition Yposition Zposition Zrotation Xrotation Yrotation
                        End Site
                        {
                          OFFSET -0.0146934 -0.0180999 0.00959832
                        }
                      }
                    }
                  }
                  JOINT rPinky1
                  {
                    OFFSET -4.91411 -1.26899 0.359202
                    CHANNELS 6 Xposition Yposition Zposition Zrotation Xrotation Yrotation
                    JOINT rPinky2
                    {
                      OFFSET -3.14769 -1.68501 0.846199
                      CHANNELS 6 Xposition Yposition Zposition Zrotation Xrotation Yrotation
                      JOINT rPinky2_End
                      {
                        OFFSET -0.805498 -1.585 0.7955
                        CHANNELS 6 Xposition Yposition Zposition Zrotation Xrotation Yrotation
                        End Site
                        {
                          OFFSET -0.00810035 -0.0158035 0.00800029
                        }
                      }
                    }
                  }
                }
              }
            }
          }
        }
      }
    }
  }
  JOINT lThigh
  {
    OFFSET 8.367 -8.2066 0.5982
    CHANNELS 6 Xposition Yposition Zposition Zrotation Xrotation Yrotation
    JOINT lShin
    {
      OFFSET 2.1923 -43.463 -0.4932
      CHANNELS 6 Xposition Yposition Zposition Zrotation Xrotation Yrotation
      JOINT lFoot
      {
        OFFSET 0.733301 -45.8593 -2.6451
        CHANNELS 6 Xposition Yposition Zposition Zrotation Xrotation Yrotation
        End Site
        {
          OFFSET 2.6618 -4.2699 12.3931
        }
      }
    }
  }
  JOINT rThigh
  {
    OFFSET -8.367 -8.2066 0.5982
    CHANNELS 6 Xposition Yposition Zposition Zrotation Xrotation Yrotation
    JOINT rShin
    {
      OFFSET -2.1923 -43.463 -0.4931
      CHANNELS 6 Xposition Yposition Zposition Zrotation Xrotation Yrotation
      JOINT rFoot
      {
        OFFSET -0.733299 -45.8593 -2.6451
        CHANNELS 6 Xposition Yposition Zposition Zrotation Xrotation Yrotation
        End Site
        {
          OFFSET -2.6618 -4.2699 12.3931
        }
      }
    }
  }
}
MOTION
Frames:	4
Frame Time:	0.0333333
-119.704 102.158 -99.7361 -14.7631 7.08776 -41.0642 2.2852e-006 -1.186 -1.5018 3.42592 1.06931 -0.989932 1.70372e-006 9.964 0.213399 6.87151 2.07739 -2.04248 -1.8963e-006 13.134 -3.2573 6.87151 2.07739 -2.04247 -3.28931e-006 20.686 -1.6905 3.32426 3.10749 10.9695 -2.62389e-006 7.23801 -0.123701 -4.71154 1.06926 8.543 1.7069 20.075 5.0056 13.9504 -0.578533 2.27441 13.6458 -0.0470158 -4.84901 -94.2077 17.2478 27.8495 28.3255 -0.975889 2.28878 -23.2497 -37.0112 -19.7388 22.1583 -0.529987 10.8316 13.5611 48.1902 9.48818 0.786001 0.111994 2.5817 4.7895 2.26005 5.74809 0.360094 -0.877999 4.2331 -3.72224 -0.22429 -6.80078 1.8127 -1.21601 2.2227 -1.67463 -0.155778 -3.0641 0.9571 1.114 1.7695 -7.95139e-016 9.54166e-015 -1.59028e-015 4.12461 0.48699 4.1451 7.66971 -4.08835 -5.82011 3.4052 -1.454 2.7682 5.53463 -2.58155 -2.15978 1.4531 -1.79499 1.2713 6.44454 -3.02966 -2.49422 5.69541 0.209988 2.1184 8.93085 -6.85984 -4.20276 3.9766 -1.53999 2.3863 7.04592 -3.68653 -2.74155 1.4042 -1.926 1.125 8.42045 -4.45298 -3.23013 2.0956 0.66 -0.3894 -7.95139e-016 9.54166e-015 -1.59028e-015 5.0395 -0.0900102 2.4971 9.9659 -4.88094 -2.1666 3.7921 -1.55199 1.4806 7.04528 -4.01105 -3.15525 1.4655 -1.808 0.960901 8.39575 -4.82855 -3.71012 4.9141 -1.269 0.359104 10.5088 -4.74916 -0.358181 3.1477 -1.685 0.846202 8.84311 -5.45107 -3.80867 0.805496 -1.585 0.795502 8.09341 -4.95922 -3.51292 -1.7069 20.075 5.0056 6.07276 -0.0913496 -1.16289 -13.6458 -0.0470144 -4.849 63.6684 4.65681 -9.16181 -28.3255 -0.975891 2.2888 14.6739 -30.604 12.387 -22.1583 -0.530015 10.8316 -5.94568 38.8839 2.97464 -0.786003 0.112009 2.5817 -1.39962 4.94878 -13.0609 -0.360105 -0.87799 4.2331 1.4768 -1.18413 4.36331 -1.8127 -1.216 2.22269 -2.24766 2.20869 -7.19777 -0.9571 1.114 1.7695 -7.95139e-016 1.27222e-014 1.59028e-015 -4.12461 0.487004 4.1451 15.4877 8.97348 -9.73291 -3.40519 -1.454 2.7682 8.21187 2.63942 -1.33976 -1.4531 -1.795 1.2713 11.0803 3.50694 -1.89249 -5.6954 0.210005 2.1184 8.91778 6.4463 -2.29436 -3.9766 -1.54 2.3863 12.5979 4.48237 -2.22081 -1.4042 -1.926 1.125 8.54341 3.10283 -1.4026 -2.0956 0.66 -0.3894 -7.95139e-016 1.27222e-014 1.59028e-015 -5.03951 -0.0899833 2.49711 7.65775 2.48446 -1.20153 -3.7921 -1.55201 1.48059 12.1141 4.71717 -2.67406 -1.4655 -1.808 0.960906 8.10078 3.22987 -1.68372 -4.9141 -1.26899 0.359196 8.28744 2.1012 -0.054866 -3.14769 -1.68501 0.846193 9.78152 4.17099 -1.98976 -0.805497 -1.585 0.795498 8.25145 3.54696 -1.6343 8.367 -8.20659 0.598203 9.36136 2.90719 -17.3702 2.1923 -43.463 -0.493207 -2.88326 43.3616 -0.636106 0.733302 -45.8593 -2.64511 13.8749 -4.75835 -10.3684 -8.36699 -8.20659 0.598189 23.6148 0.925656 0.893343 -2.1923 -43.463 -0.493103 -2.64728 -2.64556 0.446809 -0.733298 -45.8593 -2.6451 -1.93095 2.53574 -20.1396 
-121.684 102.343 -98.2951 -14.9185 6.01799 -40.4629 1.03281e-006 -1.186 -1.5018 3.28482 1.23839 -0.485204 2.00809e-006 9.964 0.213403 6.58223 2.44687 -1.04094 -1.09048e-007 13.134 -3.2573 6.58223 2.44687 -1.04095 8.12196e-007 20.6861 -1.6905 3.23495 3.19134 9.6449 -9.86281e-007 7.23801 -0.123698 -4.29003 1.08879 7.62631 1.7069 20.075 5.0056 13.8482 -0.620132 1.76788 13.6458 -0.0470167 -4.849 -92.2622 16.6205 28.5519 28.3255 -0.975893 2.2888 -23.4587 -38.1909 -19.6301 22.1583 -0.529992 10.8316 12.0611 45.308 8.91112 0.786008 0.111995 2.5817 4.6003 2.26063 6.16718 0.360097 -0.878 4.2331 -3.72223 -0.224283 -6.80077 1.8127 -1.21601 2.2227 -1.26137 -0.125729 -2.3089 0.9571 1.114 1.7695 -0 -3.18055e-015 -0 4.1246 0.48699 4.1451 6.80152 -3.20232 -4.48321 3.4052 -1.45401 2.7682 4.96051 -2.30221 -1.94571 1.4531 -1.79499 1.2713 5.64348 -2.63491 -2.20028 5.69541 0.209985 2.1184 8.23876 -5.9025 -3.76029 3.9766 -1.53999 2.3863 6.08028 -3.15677 -2.38905 1.4042 -1.926 1.125 7.64019 -4.016 -2.95493 2.0956 0.66 -0.3894 -0 -3.18055e-015 -0 5.0395 -0.0900127 2.4971 9.08092 -4.48387 -2.06875 3.7921 -1.55199 1.4806 6.11547 -3.45323 -2.76195 1.4655 -1.808 0.960901 7.6334 -4.36803 -3.40017 4.9141 -1.269 0.359099 9.46785 -4.41131 -0.530073 3.1477 -1.685 0.846202 7.93098 -4.85334 -3.44855 0.805501 -1.58501 0.795501 7.36503 -4.47267 -3.21584 -1.7069 20.075 5.0056 6.16354 -0.0909302 -1.20756 -13.6458 -0.0470171 -4.849 63.3468 5.9917 -6.95542 -28.3255 -0.975889 2.2888 15.2033 -31.229 13.5884 -22.1583 -0.530019 10.8316 -6.66412 38.5996 3.99404 -0.785999 0.112007 2.58171 -1.45474 5.01553 -13.3492 -0.360104 -0.877999 4.2331 1.47681 -1.18411 4.36331 -1.81269 -1.216 2.2227 -2.22117 2.15343 -7.04245 -0.9571 1.114 1.7695 1.59028e-015 6.36111e-015 -7.95139e-016 -4.12461 0.487014 4.1451 15.3965 9.02292 -9.69866 -3.4052 -1.454 2.7682 7.63697 2.4619 -1.23413 -1.4531 -1.795 1.2713 10.8303 3.43257 -1.84267 -5.6954 0.209996 2.1184 8.73535 6.38614 -2.24941 -3.9766 -1.54 2.3863 12.152 4.33397 -2.12628 -1.4042 -1.926 1.125 8.29707 3.01691 -1.35594 -2.0956 0.66 -0.3894 1.59028e-015 6.36111e-015 -7.95139e-016 -5.03951 -0.0899817 2.49711 7.41588 2.3897 -1.14788 -3.7921 -1.552 1.4806 11.6745 4.55822 -2.56084 -1.4655 -1.80801 0.960896 7.85831 3.13744 -1.62707 -4.9141 -1.26899 0.359199 8.04827 1.99451 -0.00595873 -3.14769 -1.68501 0.8462 9.34768 3.99518 -1.88728 -0.8055 -1.585 0.795497 8.01289 3.4536 -1.58235 8.367 -8.2066 0.598199 8.226 -2.3072 -18.9209 2.1923 -43.463 -0.4932 -2.947 47.8478 -0.201342 0.73331 -45.8593 -2.64509 16.2088 -6.76057 -9.1803 -8.367 -8.2066 0.598196 23.513 3.22774 0.527342 -2.19229 -43.463 -0.493104 -3.02268 -2.52746 0.554325 -0.733302 -45.8593 -2.6451 -0.846226 0.30836 -20.866 
-123.498 102.628 -96.8092 -14.2464 4.34674 -40.5246 -3.18679e-007 -1.186 -1.5018 2.93009 1.43881 -0.0084538 -3.00737e-006 9.964 0.213401 5.86317 2.87531 -0.0905509 2.23014e-006 13.134 -3.2573 5.86318 2.87531 -0.0905412 -4.05151e-006 20.686 -1.6905 3.18072 3.72407 8.72427 3.63199e-006 7.23801 -0.1237 -4.25273 0.651053 6.77238 1.7069 20.075 5.0056 13.5182 -0.628835 1.39407 13.6458 -0.0470118 -4.84901 -90.3955 14.2552 29.2011 28.3255 -0.975894 2.2888 -23.7183 -39.5123 -19.5407 22.1583 -0.529991 10.8316 10.6161 43.1494 8.394 0.786003 0.111997 2.58171 4.39894 2.25262 6.61077 0.360096 -0.877999 4.2331 -3.72224 -0.224316 -6.80077 1.81269 -1.21601 2.2227 -0.848574 -0.0902114 -1.55393 0.9571 1.114 1.7695 4.77083e-015 0 3.97569e-015 4.1246 0.486995 4.1451 5.84483 -2.256 -3.06875 3.4052 -1.454 2.7682 4.34057 -2.00348 -1.71193 1.4531 -1.79499 1.2713 4.78131 -2.21564 -1.87862 5.69541 0.209991 2.1184 7.47734 -4.89089 -3.28489 3.9766 -1.53999 2.3863 5.04216 -2.59568 -2.00153 1.40419 -1.926 1.125 6.80046 -3.55095 -2.65299 2.0956 0.66 -0.3894 4.77083e-015 0 3.97569e-015 5.03951 -0.090012 2.4971 8.13327 -4.06081 -1.94953 3.7921 -1.55199 1.4806 5.1152 -2.86253 -2.33064 1.4655 -1.808 0.960898 6.82524 -3.87818 -3.06287 4.9141 -1.269 0.359096 8.35867 -4.04881 -0.691063 3.1477 -1.685 0.8462 6.94997 -4.21909 -3.05236 0.805497 -1.58501 0.7955 6.54208 -3.94533 -2.88004 -1.7069 20.075 5.0056 5.74379 -0.0874843 -1.42642 -13.6458 -0.0470148 -4.849 63.1497 8.98716 -4.11682 -28.3255 -0.975894 2.2888 15.8354 -32.4272 14.8733 -22.1583 -0.530011 10.8316 -6.84769 38.181 4.36924 -0.785999 0.112003 2.5817 -1.51952 5.09576 -13.6866 -0.360108 -0.877995 4.2331 1.4768 -1.18411 4.36331 -1.8127 -1.216 2.2227 -2.14498 2.08223 -6.81756 -0.9571 1.114 1.7695 3.57812e-015 0 7.95139e-016 -4.1246 0.487014 4.14511 15.2508 9.06954 -9.64774 -3.4052 -1.45401 2.7682 6.94559 2.24685 -1.10938 -1.4531 -1.79499 1.2713 10.5138 3.33809 -1.78009 -5.6954 0.210007 2.1184 8.49263 6.30584 -2.18988 -3.9766 -1.54 2.3863 11.6012 4.14951 -2.01102 -1.4042 -1.92599 1.125 7.98529 2.90784 -1.29741 -2.0956 0.66 -0.3894 3.57812e-015 0 7.95139e-016 -5.03951 -0.0899839 2.4971 7.1098 2.2695 -1.08061 -3.7921 -1.55201 1.48059 11.1315 4.36056 -2.42262 -1.4655 -1.808 0.960899 7.55147 3.02009 -1.55594 -4.91411 -1.26899 0.359201 7.74587 1.85931 0.0551464 -3.1477 -1.685 0.846204 8.81186 3.77677 -1.76249 -0.805503 -1.585 0.795503 7.70666 3.322 -1.51149 8.367 -8.2066 0.598199 5.6525 -6.66915 -20.287 2.1923 -43.463 -0.4932 -2.93373 48.8773 0.234329 0.733303 -45.8593 -2.6451 18.7826 -7.53037 -6.14993 -8.36701 -8.2066 0.598201 22.2527 5.62661 0.272876 -2.1923 -43.463 -0.493099 -3.26189 -2.61682 0.552492 -0.733304 -45.8593 -2.6451 -0.930557 -1.07832 -20.9371 
-125.218 103.066 -95.2715 -12.8546 2.66183 -41.4677 -2.4969e-006 -1.186 -1.5018 2.43081 1.64672 0.440463 -6.27564e-007 9.964 0.213402 4.85197 3.31062 0.811122 -3.20915e-007 13.134 -3.2573 4.85197 3.31062 0.811123 -3.67491e-006 20.686 -1.6905 3.18139 3.75058 8.50606 3.11143e-006 7.238 -0.123703 -4.4452 0.722501 6.35358 1.7069 20.075 5.0056 13.1944 -0.533598 2.06756 13.6458 -0.0470081 -4.849 -88.87 12.0793 29.5308 28.3255 -0.975904 2.2888 -23.9009 -40.8839 -19.2379 22.1583 -0.529992 10.8316 9.8789 41.8071 8.36577 0.786 0.111995 2.5817 4.19764 2.24305 7.0543 0.360097 -0.877997 4.2331 -3.72226 -0.224317 -6.80077 1.8127 -1.21601 2.2227 -0.419017 -0.0474403 -0.76769 0.9571 1.114 1.7695 -4.77083e-015 -3.18055e-015 -0 4.1246 0.486994 4.1451 4.80712 -1.26502 -1.59982 3.4052 -1.454 2.7682 3.68218 -1.6896 -1.46058 1.4531 -1.79499 1.2713 3.86111 -1.77116 -1.5243 5.69541 0.209986 2.1184 6.65311 -3.84283 -2.78199 3.9766 -1.53999 2.3863 3.9449 -2.01225 -1.5825 1.4042 -1.926 1.125 5.91178 -3.0649 -2.32703 2.0956 0.66 -0.3894 -4.77083e-015 -3.18055e-015 -0 5.0395 -0.0900171 2.4971 7.13594 -3.61799 -1.80765 3.7921 -1.55199 1.4806 4.05713 -2.24847 -1.86538 1.4655 -1.808 0.960905 5.96054 -3.3558 -2.6937 4.91411 -1.26901 0.359102 7.19786 -3.66649 -0.834135 3.1477 -1.685 0.846202 5.91258 -3.55834 -2.62359 0.805501 -1.585 0.795499 5.71655 -3.42288 -2.53689 -1.7069 20.075 5.0056 4.95943 -0.0893658 -1.19114 -13.6458 -0.0470165 -4.849 63.2778 10.8023 -0.797924 -28.3255 -0.975899 2.2888 16.1983 -32.6496 15.7545 -22.1583 -0.530008 10.8316 -7.16569 37.5223 5.03781 -0.785999 0.112004 2.5817 -1.59246 5.18962 -14.0576 -0.360104 -0.877992 4.2331 1.47676 -1.18412 4.36332 -1.81269 -1.21601 2.22269 -2.06854 2.01133 -6.59258 -0.9571 1.114 1.7695 -7.7526e-015 3.18055e-015 -1.59028e-015 -4.12461 0.487014 4.14511 15.0381 9.10575 -9.57718 -3.4052 -1.45401 2.7682 6.15903 2.00017 -0.970547 -1.4531 -1.795 1.2713 10.1332 3.22397 -1.70548 -5.6954 0.210004 2.1184 8.18612 6.20402 -2.11517 -3.9766 -1.54 2.3863 10.9556 3.93168 -1.87812 -1.4042 -1.92599 1.125 7.61033 2.77621 -1.22778 -2.0956 0.66 -0.3894 -7.7526e-015 3.18055e-015 -1.59028e-015 -5.03951 -0.0899826 2.49711 6.74185 2.1245 -1.00061 -3.7921 -1.55201 1.4806 10.4953 4.12699 -2.26292 -1.4655 -1.80801 0.960901 7.18251 2.87837 -1.47117 -4.91411 -1.26899 0.359201 7.38264 1.69651 0.127489 -3.1477 -1.68501 0.846194 8.18394 3.51906 -1.61871 -0.805498 -1.585 0.795494 7.34083 3.17011 -1.43016 8.367 -8.20661 0.598197 2.66975 -10.2665 -20.578 2.1923 -43.463 -0.493195 -2.83566 46.3103 0.506289 0.733303 -45.8593 -2.6451 19.6193 -7.18309 -4.59609 -8.367 -8.2066 0.598201 20.2093 7.65284 0.0651228 -2.1923 -43.463 -0.493095 -3.34434 -2.64613 0.477705 -0.733297 -45.8593 -2.6451 -1.39766 -2.35604 -20.4802 
